<?xml version="1.0" standalone="no"?><!DOCTYPE svg PUBLIC "-//W3C//DTD SVG 1.1//EN" "http://www.w3.org/Graphics/SVG/1.1/DTD/svg11.dtd"><svg t="1635754789988" class="icon" viewBox="0 0 1024 1024" version="1.1" xmlns="http://www.w3.org/2000/svg" p-id="5279" xmlns:xlink="http://www.w3.org/1999/xlink" width="200" height="200"><defs><style type="text/css"></style></defs><path d="M0 160v704c0 35.3 28.7 64 64 64h896c35.3 0 64-28.7 64-64V160c0-35.3-28.7-64-64-64H64c-35.3 0-64 28.7-64 64z m944 704H80c-8.8 0-16-7.2-16-16V360c0-4.4 3.6-8 8-8h880c4.4 0 8 3.6 8 8v488c0 8.8-7.2 16-16 16z m8-576H72c-4.4 0-8-3.6-8-8V176c0-8.8 7.2-16 16-16h864c8.8 0 16 7.2 16 16v104c0 4.4-3.6 8-8 8z" p-id="5280"></path><path d="M848 256c-17.7 0-32-14.3-32-32s14.3-32 32-32 32 14.3 32 32-14.3 32-32 32zM720 256c-17.7 0-32-14.3-32-32s14.3-32 32-32 32 14.3 32 32-14.3 32-32 32zM592 256c-17.7 0-32-14.3-32-32s14.3-32 32-32 32 14.3 32 32-14.3 32-32 32z" p-id="5281"></path></svg>